<?xml version="1.0" encoding="utf-8"?>
<!-- Generator: Adobe Illustrator 16.0.0, SVG Export Plug-In . SVG Version: 6.00 Build 0)  -->
<!DOCTYPE svg PUBLIC "-//W3C//DTD SVG 1.1//EN" "http://www.w3.org/Graphics/SVG/1.1/DTD/svg11.dtd">
<svg version="1.1" xmlns="http://www.w3.org/2000/svg" xmlns:xlink="http://www.w3.org/1999/xlink" x="0px" y="0px" width="120px"
	 height="152px" viewBox="0 0 120 152" enable-background="new 0 0 120 152" xml:space="preserve">
<g id="레이어_1">
</g>
<g id="새플">
</g>
<g id="아이콘">
</g>
<g id="book">
</g>
<g id="레이어_4">
</g>
<g id="레이어_6">
	<g>
		<path fill="#BCBCBB" d="M49.189,140.023h-8.184v1.606h4.026v7.018h-2.354v-4.796h-8.426v-2.222h4.355v-1.606h-8.25v-2.222h18.832
			V140.023z M44.768,136.569h-10.45v-8.25h2.332v2.112h5.786v-2.112h2.332V136.569z M42.436,134.392v-1.782h-5.786v1.782H42.436z"/>
		<path fill="#BCBCBB" d="M59.771,141.542h-8.844v-11.133h8.844V141.542z M57.439,139.298v-6.645h-4.18v6.645H57.439z
			 M69.386,136.768H65.8v10.89h-2.376v-20.02H65.8v6.93h3.586V136.768z"/>
		<path fill="#BCBCBB" d="M88.768,144.974H69.957v-2.244h18.811V144.974z M84.764,134.304c0,0.543-0.015,1.118-0.044,1.727
			c-0.03,0.609-0.088,1.229-0.177,1.859c-0.088,0.631-0.209,1.254-0.362,1.87c-0.154,0.616-0.349,1.195-0.583,1.738h-2.486
			c0.278-0.733,0.51-1.478,0.693-2.233c0.183-0.755,0.318-1.492,0.406-2.211h-8.865v-2.244c0.513,0,0.982,0,1.407,0
			c0.426,0,0.91,0,1.452,0c0.543,0,1.101,0,1.672,0c0.572,0,1.13,0,1.673,0c0.542,0,1.026,0,1.451,0c0.411,0,0.881,0,1.408,0
			c0-0.132,0.004-0.26,0.011-0.385c0.008-0.125,0.012-0.253,0.012-0.385v-1.958h-9.086v-2.2h11.418V134.304z"/>
	</g>
	<g>
		<path fill="#99CC66" d="M100.479,1.924H18.645c-7.083,0-12.846,5.762-12.846,12.845v81.836c0,7.084,5.763,12.846,12.846,12.846
			h81.835c7.084,0,12.847-5.762,12.847-12.846V14.769C113.326,7.686,107.563,1.924,100.479,1.924z"/>
		<g>
			<defs>
				<path id="SVGID_164_" d="M100.479,1.924H18.645c-7.083,0-12.846,5.762-12.846,12.845v81.836c0,7.084,5.763,12.846,12.846,12.846
					h81.835c7.084,0,12.847-5.762,12.847-12.846V14.769C113.326,7.686,107.563,1.924,100.479,1.924z"/>
			</defs>
			<clipPath id="SVGID_1_">
				<use xlink:href="#SVGID_164_"  overflow="visible"/>
			</clipPath>
		</g>
		<g>
			<path fill="#EEEFEC" d="M75.9,50.693l2.405-15.197l-0.6-0.646l-15.69,0.906l-0.027-0.028L33.302,62.396l13.938,14.992
				l28.688-26.669L75.9,50.693z M73.012,39.454c0.945,1.019,0.887,2.607-0.129,3.553c-1.018,0.947-2.608,0.889-3.553-0.13
				c-0.947-1.016-0.89-2.607,0.129-3.553C70.475,38.379,72.065,38.438,73.012,39.454z M48.097,73.781L36.984,61.89l19.214-17.948
				L67.31,55.835L48.097,73.781z"/>
			<path fill="#EEEFEC" d="M83.478,58.778l2.474-13.592l-0.526-0.591l-3.737,0.132l-0.69,3.793c0.039,0.039,0.083,0.07,0.119,0.111
				c0.828,0.933,0.744,2.359-0.188,3.187s-2.359,0.745-3.187-0.188c-0.015-0.016-0.024-0.035-0.038-0.053l-6.936,6.157l4.893,5.483
				L58.045,78.933l-4.931-5.525l-2.057,1.826l6.143,6.918l26.3-23.348L83.478,58.778z"/>
		</g>
	</g>
</g>
</svg>
