<?xml version="1.0" encoding="utf-8"?>
<!-- Generator: Adobe Illustrator 16.0.0, SVG Export Plug-In . SVG Version: 6.00 Build 0)  -->
<!DOCTYPE svg PUBLIC "-//W3C//DTD SVG 1.1//EN" "http://www.w3.org/Graphics/SVG/1.1/DTD/svg11.dtd">
<svg version="1.1" xmlns="http://www.w3.org/2000/svg" xmlns:xlink="http://www.w3.org/1999/xlink" x="0px" y="0px" width="120px"
	 height="152px" viewBox="0 0 120 152" enable-background="new 0 0 120 152" xml:space="preserve">
<g id="레이어_1">
</g>
<g id="새플">
</g>
<g id="아이콘">
</g>
<g id="book">
</g>
<g id="레이어_4">
</g>
<g id="레이어_6">
	<g>
		<path fill="#BCBCBB" d="M58.902,140.023H40.07v-2.222h8.25v-1.694h-4.069v-7.678h10.472v7.678h-4.004v1.694h8.184V140.023z
			 M54.833,148.647h-2.354v-5.016h-8.426v-2.244h10.78V148.647z M52.369,133.907v-3.256h-5.786v3.256H52.369z"/>
		<path fill="#BCBCBB" d="M71.332,140.464l-1.605,1.693l-3.652-2.947c-0.748,0.675-1.544,1.262-2.387,1.76
			c-0.844,0.499-1.676,0.88-2.497,1.144l-1.452-1.781c0.733-0.234,1.452-0.539,2.156-0.913s1.356-0.788,1.958-1.243
			c0.586-0.47,1.111-0.972,1.573-1.507s0.817-1.082,1.066-1.64H60.86v-2.222h8.69c-0.088,0.88-0.301,1.713-0.639,2.497
			c-0.337,0.785-0.763,1.515-1.275,2.188L71.332,140.464z M68.429,131.686c-0.294,0.029-0.804,0.055-1.529,0.077
			c-0.726,0.021-1.529,0.019-2.409-0.011c-0.763-0.073-1.396-0.228-1.902-0.462c-0.507-0.234-0.825-0.411-0.957-0.528l0.748-1.804
			c0.073,0.029,0.183,0.073,0.329,0.132s0.315,0.117,0.507,0.176c0.205,0.059,0.432,0.114,0.682,0.165
			c0.249,0.052,0.521,0.085,0.814,0.099c0.776,0.044,1.514,0.052,2.211,0.022c0.696-0.029,1.198-0.059,1.507-0.088V131.686z
			 M79.055,137.317h-3.586v10.34h-2.354v-20.02h2.354v7.458h3.586V137.317z"/>
	</g>
	<g>
		<path fill="#FFCC66" d="M100.479,1.924H18.644c-7.082,0-12.846,5.762-12.846,12.845v81.836c0,7.084,5.764,12.846,12.846,12.846
			h81.836c7.084,0,12.848-5.762,12.848-12.846V14.769C113.327,7.686,107.563,1.924,100.479,1.924z"/>
		<g>
			<defs>
				<path id="SVGID_162_" d="M100.479,1.924H18.644c-7.082,0-12.846,5.762-12.846,12.845v81.836c0,7.084,5.764,12.846,12.846,12.846
					h81.836c7.084,0,12.848-5.762,12.848-12.846V14.769C113.327,7.686,107.563,1.924,100.479,1.924z"/>
			</defs>
			<clipPath id="SVGID_1_">
				<use xlink:href="#SVGID_162_"  overflow="visible"/>
			</clipPath>
		</g>
		<g>
			<polygon fill="#EEEFEC" points="65.226,83.103 66.159,83.103 79.712,69.55 79.712,68.616 65.226,68.616 			"/>
			<path fill="#EEEFEC" d="M41.744,30.147v52.955H62.56V65.95h17.152V30.147H41.744z M74.05,60.122H47.905v-3.996H74.05V60.122z
				 M74.05,53.628H47.905v-3.996H74.05V53.628z M74.05,47.134H47.905v-3.997H74.05V47.134z M74.05,40.64H47.905v-3.997H74.05V40.64z
				"/>
		</g>
	</g>
</g>
</svg>
