<?xml version="1.0" encoding="utf-8"?>
<!-- Generator: Adobe Illustrator 16.0.0, SVG Export Plug-In . SVG Version: 6.00 Build 0)  -->
<!DOCTYPE svg PUBLIC "-//W3C//DTD SVG 1.1//EN" "http://www.w3.org/Graphics/SVG/1.1/DTD/svg11.dtd">
<svg version="1.1" xmlns="http://www.w3.org/2000/svg" xmlns:xlink="http://www.w3.org/1999/xlink" x="0px" y="0px" width="120px"
	 height="152px" viewBox="0 0 120 152" enable-background="new 0 0 120 152" xml:space="preserve">
<g id="레이어_1">
</g>
<g id="새플">
</g>
<g id="아이콘">
</g>
<g id="book">
</g>
<g id="레이어_4">
</g>
<g id="레이어_6">
	<g>
		<path fill="#BCBCBB" d="M46.726,137.607l-1.848,1.541l-2.707-3.41c-0.41,0.865-0.901,1.588-1.473,2.166
			c-0.572,0.58-1.137,1.104-1.695,1.574l-1.693-1.76c0.044-0.029,0.092-0.063,0.143-0.1c0.052-0.037,0.1-0.07,0.144-0.1
			s0.091-0.063,0.144-0.1c0.051-0.035,0.098-0.076,0.143-0.119l-1.211-1.586c-0.425,0.764-0.916,1.439-1.473,2.025
			c-0.559,0.586-1.137,1.1-1.738,1.539l-1.76-1.76c0.836-0.498,1.502-1.063,2.002-1.693c0.498-0.631,0.872-1.254,1.121-1.871
			c0.264-0.629,0.437-1.225,0.518-1.781c0.08-0.557,0.121-1.02,0.121-1.387v-1.736h2.42v1.539c0,0.455-0.021,0.887-0.066,1.299
			c-0.044,0.41-0.103,0.799-0.176,1.166l1.893,2.441c0.542-0.836,0.891-1.676,1.045-2.52c0.153-0.844,0.23-1.572,0.23-2.189v-1.736
			h2.398v1.539c0,0.439-0.02,0.857-0.056,1.254s-0.077,0.77-0.12,1.121L46.726,137.607z M49.607,148.431H38.981v-7.59h10.626
			V148.431z M47.231,146.232v-3.168h-5.874v3.168H47.231z M49.96,140.072h-2.354v-5.852h-3.388v-2.201h3.388v-4.201h2.354V140.072z"
			/>
		<path fill="#BCBCBB" d="M61.136,141.457h-8.778V130.15h2.332v9.086h6.446V141.457z M64.831,146.474h-2.332V136.31h-4.554v-2.244
			h4.554v-5.809h2.332V146.474z M69.21,147.837h-2.332v-20.02h2.332V147.837z"/>
		<path fill="#BCBCBB" d="M81.31,133.449c0,0.676-0.137,1.299-0.407,1.871c-0.271,0.572-0.635,1.063-1.089,1.473
			c-0.47,0.426-1.005,0.756-1.605,0.99c-0.602,0.236-1.24,0.354-1.914,0.354c-0.66,0-1.287-0.121-1.882-0.363
			c-0.594-0.242-1.11-0.568-1.551-0.98c-0.44-0.424-0.788-0.924-1.045-1.496c-0.257-0.57-0.386-1.188-0.386-1.848
			s0.125-1.275,0.375-1.848c0.249-0.572,0.594-1.063,1.033-1.475c0.426-0.424,0.936-0.754,1.529-0.988s1.235-0.354,1.926-0.354
			c0.703,0,1.359,0.115,1.969,0.342c0.607,0.227,1.14,0.547,1.595,0.957c0.44,0.41,0.792,0.902,1.056,1.475
			C81.177,132.128,81.31,132.759,81.31,133.449z M78.933,133.449c0-0.703-0.26-1.293-0.78-1.77s-1.141-0.717-1.858-0.717
			c-0.705,0-1.303,0.236-1.793,0.705c-0.492,0.469-0.738,1.057-0.738,1.76c0,0.748,0.246,1.354,0.738,1.814
			c0.49,0.463,1.088,0.693,1.793,0.693c0.703,0,1.319-0.23,1.848-0.693C78.669,134.781,78.933,134.183,78.933,133.449z
			 M87.337,148.585H76.535v-5.764h7.854v-1.145h-7.965v-2.199H86.81V145h-7.811v1.32h8.338V148.585z M87.425,138.884h-2.332v-11.066
			h2.332V138.884z"/>
	</g>
	<g>
		<path fill="#99CC66" d="M100.479,1.923H18.646c-7.084,0-12.848,5.764-12.848,12.846v81.836c0,7.084,5.764,12.848,12.848,12.848
			h81.834c7.084,0,12.848-5.764,12.848-12.848V14.769C113.327,7.687,107.563,1.923,100.479,1.923z"/>
		<g>
			<defs>
				<path id="SVGID_176_" d="M100.479,1.923H18.646c-7.084,0-12.848,5.764-12.848,12.846v81.836c0,7.084,5.764,12.848,12.848,12.848
					h81.834c7.084,0,12.848-5.764,12.848-12.848V14.769C113.327,7.687,107.563,1.923,100.479,1.923z"/>
			</defs>
			<clipPath id="SVGID_1_">
				<use xlink:href="#SVGID_176_"  overflow="visible"/>
			</clipPath>
		</g>
		<g>
			<path fill="#EEEFEC" d="M32.599,35.973v20.647h32.117V35.973H32.599z M35.037,47.157h5.878v2.009h-5.878V47.157z M41.632,54.041
				h-6.38v-2.009h6.38V54.041z M41.919,47.157h5.879v2.009h-5.879V47.157z M48.515,50.087v0.879h-2.796v-0.879H48.515z
				 M52.099,54.041h-9.104v-2.009h9.104V54.041z M54.536,50.965l-5.377,0.001v-0.879h5.377V50.965z M54.679,49.166h-5.877v-2.009
				h5.877V49.166z M61.563,49.166h-5.879v-2.009h5.879V49.166z M61.849,44.433h-5.592v-5.734h5.592V44.433z"/>
			<path fill="#EEEFEC" d="M66.349,45.964v11.184h5.426v2.007h-5.426v0.13H42.813v7.327H74.93V45.964H66.349z M55.932,60.078h2.796
				v0.88h-2.796V60.078z M51.847,64.031h-6.382v-2.008h6.382V64.031z M62.313,64.031h-9.107v-2.008h9.107V64.031z M64.751,60.957
				l-5.378,0.001v-0.88h5.378V60.957z M72.063,54.424H66.47v-5.735h5.594V54.424z"/>
			<path fill="#EEEFEC" d="M77.229,56.844v11.184h5.426v2.007h-5.426v0.129H53.691v7.327h32.117V56.844H77.229z M66.812,70.957
				h2.795v0.88h-2.795V70.957z M62.725,74.91h-6.381v-2.008h6.381V74.91z M73.191,74.91h-9.104v-2.008h9.104V74.91z M75.629,71.836
				h-5.376v-0.88h5.376V71.836z M82.942,65.304h-5.592v-5.736h5.592V65.304z"/>
		</g>
	</g>
</g>
</svg>
