<?xml version="1.0" encoding="utf-8"?>
<!-- Generator: Adobe Illustrator 16.0.0, SVG Export Plug-In . SVG Version: 6.00 Build 0)  -->
<!DOCTYPE svg PUBLIC "-//W3C//DTD SVG 1.1//EN" "http://www.w3.org/Graphics/SVG/1.1/DTD/svg11.dtd">
<svg version="1.1" xmlns="http://www.w3.org/2000/svg" xmlns:xlink="http://www.w3.org/1999/xlink" x="0px" y="0px" width="120px"
	 height="152px" viewBox="0 0 120 152" enable-background="new 0 0 120 152" xml:space="preserve">
<g id="레이어_1">
</g>
<g id="새플">
</g>
<g id="아이콘">
</g>
<g id="book">
</g>
<g id="레이어_4">
</g>
<g id="레이어_6">
	<g>
		<path fill="#BCBCBB" d="M49.631,145.373H30.863v-2.199h18.768V145.373z M46.396,140.248H33.9v-2.223h2.42
			c0-0.352-0.004-0.719-0.012-1.1s-0.018-0.727-0.033-1.033c-0.029-0.646-0.139-1.156-0.33-1.529
			c-0.189-0.375-0.322-0.613-0.395-0.715l2.09-0.859c0.043,0.074,0.117,0.18,0.219,0.32c0.104,0.139,0.205,0.326,0.309,0.561
			s0.195,0.514,0.275,0.836s0.129,0.703,0.143,1.145c0.029,0.381,0.047,0.781,0.055,1.199s0.012,0.811,0.012,1.176h3.059v-5.521
			h-7.613v-2.199h12.123v2.199h-2.178v5.521h2.354V140.248z"/>
		<path fill="#BCBCBB" d="M63.072,140.181h-11.33v-6.578h6.16v-2.068h-6.27v-2.199h8.668v6.49h-6.205v2.133h8.977V140.181z
			 M67.34,148.388H56.385v-6.711h2.354v4.467h8.602V148.388z M67.076,142.292h-2.332v-14.475h2.332V142.292z"/>
		<path fill="#BCBCBB" d="M88.262,145.373H69.232v-2.221h19.029V145.373z M83.928,140.796H73.125v-10.713h10.648v2.199h-8.316v1.959
			h8.162v2.221h-8.162v2.092h8.471V140.796z"/>
	</g>
	<g>
		<path fill="#CC6666" d="M100.48,1.924H18.645c-7.084,0-12.846,5.763-12.846,12.846v81.835c0,7.084,5.762,12.847,12.846,12.847
			h81.836c7.084,0,12.846-5.763,12.846-12.847V14.77C113.326,7.687,107.564,1.924,100.48,1.924z"/>
		<g>
			<defs>
				<path id="SVGID_174_" d="M100.48,1.924H18.645c-7.084,0-12.846,5.763-12.846,12.846v81.835c0,7.084,5.762,12.847,12.846,12.847
					h81.836c7.084,0,12.846-5.763,12.846-12.847V14.77C113.326,7.687,107.564,1.924,100.48,1.924z"/>
			</defs>
			<use xlink:href="#SVGID_174_"  overflow="visible" fill="#CC6666"/>
			<clipPath id="SVGID_1_">
				<use xlink:href="#SVGID_174_"  overflow="visible"/>
			</clipPath>
		</g>
		<path fill="#EEEFEC" d="M32.141,40.798v37.303h53.287V40.798H32.141z M47.875,49.13c2.928,0,5.3,2.371,5.3,5.299
			c0,2.926-2.372,5.299-5.3,5.299c-2.926,0-5.299-2.373-5.299-5.299C42.576,51.501,44.949,49.13,47.875,49.13z M59.865,66.081
			c0,2.069-1.82,3.749-4.066,3.749H39.953c-2.246,0-4.066-1.68-4.066-3.749v-0.781c0-2.07,4.531-4.999,6.779-4.999h1.652
			c0.941,0.855,2.186,1.38,3.557,1.38c1.373,0,2.617-0.524,3.559-1.38h1.652c2.247,0,6.779,2.929,6.779,4.999V66.081z
			 M82.764,69.774H64.779v-3.997h17.984V69.774z M82.764,63.114H64.779v-3.997h17.984V63.114z M82.764,56.453H64.779v-3.998h17.984
			V56.453z M82.764,49.792H64.779v-3.997h17.984V49.792z"/>
	</g>
</g>
</svg>
