<?xml version="1.0" encoding="utf-8"?>
<!-- Generator: Adobe Illustrator 19.1.0, SVG Export Plug-In . SVG Version: 6.00 Build 0)  -->
<svg version="1.1" id="아이콘" xmlns="http://www.w3.org/2000/svg" xmlns:xlink="http://www.w3.org/1999/xlink" x="0px" y="0px"
	 viewBox="-289 380 33 33" style="enable-background:new -289 380 33 33;" xml:space="preserve">
<style type="text/css">
	.st0{fill:#FFFFFF;}
</style>
<path class="st0" d="M-269.4,399.6h5v5h-5V399.6z M-269.6,397.8c-0.9,0-1.7,0.8-1.7,1.7v5.4c0,0.9,0.8,1.7,1.7,1.7h5.4
	c0.9,0,1.7-0.8,1.7-1.7v-5.4c0-0.9-0.8-1.7-1.7-1.7H-269.6z M-280.6,388.4h5.6v5.6h-5.6V388.4z M-280.8,386.5
	c-0.9,0-1.7,0.8-1.7,1.7v6c0,0.9,0.8,1.7,1.7,1.7h6c0.9,0,1.7-0.8,1.7-1.7v-6c0-0.9-0.8-1.7-1.7-1.7H-280.8z M-280.8,397.8
	c-0.9,0-1.7,0.8-1.7,1.7v5.4c0,0.9,0.8,1.7,1.7,1.7h6c0.9,0,1.7-0.8,1.7-1.7v-5.4c0-0.9-0.8-1.7-1.7-1.7H-280.8z M-269.6,386.5
	c-0.9,0-1.7,0.8-1.7,1.7v6c0,0.9,0.8,1.7,1.7,1.7h5.4c0.9,0,1.7-0.8,1.7-1.7v-6c0-0.9-0.8-1.7-1.7-1.7H-269.6z"/>
</svg>
