<?xml version="1.0" encoding="utf-8"?>
<!-- Generator: Adobe Illustrator 19.1.0, SVG Export Plug-In . SVG Version: 6.00 Build 0)  -->
<svg version="1.1" id="아이콘" xmlns="http://www.w3.org/2000/svg" xmlns:xlink="http://www.w3.org/1999/xlink" x="0px" y="0px"
	 viewBox="-289 380 33 33" style="enable-background:new -289 380 33 33;" xml:space="preserve">
<style type="text/css">
	.st0{fill:#FFFFFF;}
</style>
<g>
	<path class="st0" d="M-274.1,403.4c-2.1,0-4.2-0.8-5.8-2.4c-1.6-1.6-2.5-3.6-2.5-5.9c0-2.2,0.8-4.3,2.4-5.9
		c1.6-1.6,3.6-2.5,5.9-2.5c2.2,0,4.3,0.8,5.9,2.4c3.3,3.2,3.4,8.5,0.2,11.8l0,0C-269.7,402.5-271.9,403.4-274.1,403.4z M-274.1,389
		c0,0-0.1,0-0.1,0c-1.7,0-3.3,0.5-4.5,1.8c-1.2,1.2-1.8,2.7-1.8,4.4c0,1.7,0.7,3.2,1.9,4.4c2.5,2.4,6.5,2.4,9-0.2
		c2.4-2.5,2.4-6.4-0.1-8.8C-270.9,389.5-272.4,389-274.1,389z"/>
	<path class="st0" d="M-263.5,406.3c-0.3,0-0.5-0.1-0.7-0.3l-5.4-5.2c-0.4-0.4-0.4-1,0-1.4s1-0.4,1.4,0l5.4,5.2c0.4,0.4,0.4,1,0,1.4
		C-262.9,406.2-263.2,406.3-263.5,406.3z"/>
</g>
</svg>
