<?xml version="1.0" encoding="utf-8"?>
<!-- Generator: Adobe Illustrator 19.1.0, SVG Export Plug-In . SVG Version: 6.00 Build 0)  -->
<svg version="1.1" id="아이콘" xmlns="http://www.w3.org/2000/svg" xmlns:xlink="http://www.w3.org/1999/xlink" x="0px" y="0px"
	 viewBox="-289 380 33 33" style="enable-background:new -289 380 33 33;" xml:space="preserve">
<style type="text/css">
	.st0{opacity:0.7;}
	.st1{fill:#FFFFFF;}
</style>
<g id="아이콘_2_">
	<g class="st0">
		<polygon class="st1" points="-275.3,395.8 -274,395.8 -274.7,393.7 		"/>
		<path class="st1" d="M-272.5,386.5c-6.1,0-11,3.8-11,8.5c0,3.1,2.1,5.8,5.2,7.3l-1.1,3.9c0,0-0.1,0.4,0.3,0.3
			c0.4-0.1,3.6-2.4,4.6-3.1c0.7,0.1,1.3,0.1,2,0.1c6.1,0,11-3.8,11-8.5C-261.4,390.3-266.4,386.5-272.5,386.5z M-277.8,397.3
			c0,0.4-0.3,0.6-0.7,0.6c-0.4,0-0.7-0.3-0.7-0.6v-3.7l0,0h-1c-0.4,0-0.6-0.3-0.6-0.6c0-0.4,0.3-0.6,0.6-0.6h3.3
			c0.4,0,0.6,0.3,0.6,0.6c0,0.4-0.3,0.6-0.6,0.6h-1l0,0L-277.8,397.3L-277.8,397.3z M-272.7,397.9c-0.3,0.1-0.7-0.1-0.7-0.5
			l-0.2-0.7h-2l-0.2,0.7c-0.1,0.4-0.5,0.6-0.7,0.5s-0.5-0.5-0.4-0.8l1.5-4.3c0.1-0.3,0.4-0.5,0.7-0.5l0,0h0.5l0,0
			c0.3,0,0.5,0.2,0.6,0.5l1.5,4.3C-272.2,397.5-272.4,397.9-272.7,397.9z M-269.4,397.9h-2c-0.4,0-0.7-0.3-0.7-0.6l0,0l0,0v-4.4
			c0-0.4,0.3-0.7,0.7-0.7s0.7,0.3,0.7,0.7v3.8h1.2c0.4,0,0.7,0.3,0.7,0.6C-268.7,397.6-269,397.9-269.4,397.9z M-264.6,397.9
			c-0.3,0.2-0.7,0.2-0.9-0.1l-1.5-1.9l-0.1,0.1v1.2c0,0.4-0.3,0.7-0.7,0.7c-0.5,0-0.7-0.3-0.7-0.7V393c0-0.4,0.3-0.7,0.7-0.7
			c0.4,0,0.7,0.3,0.7,0.7v1.2l1.7-1.7c0.3-0.3,0.7-0.3,0.8,0c0.3,0.3,0.3,0.7,0,0.8l-1.5,1.5l1.6,2.1
			C-264.3,397.2-264.3,397.6-264.6,397.9z"/>
	</g>
</g>
</svg>
