<?xml version="1.0" encoding="utf-8"?>
<!-- Generator: Adobe Illustrator 19.1.0, SVG Export Plug-In . SVG Version: 6.00 Build 0)  -->
<svg version="1.1" id="아이콘" xmlns="http://www.w3.org/2000/svg" xmlns:xlink="http://www.w3.org/1999/xlink" x="0px" y="0px"
	 viewBox="-289 380 33 33" style="enable-background:new -289 380 33 33;" xml:space="preserve">
<style type="text/css">
	.st0{opacity:0.7;}
	.st1{fill:#FFFFFF;}
</style>
<g id="아이콘_1_">
	<g class="st0">
		<path class="st1" d="M-263.2,388.9c-0.7,0.5-1.7,0.8-2.6,0.9c-0.7-0.7-1.8-1.3-3-1.3c-2.2,0-4.1,1.8-4.1,4c0,0.3,0,0.7,0.1,0.9
			c-3.4-0.2-6.4-1.8-8.4-4.2c-0.4,0.6-0.6,1.3-0.6,2.1c0,1.4,0.7,2.6,1.9,3.4c-0.7,0-1.3-0.2-1.9-0.5v0.1c0,2,1.4,3.6,3.3,3.9
			c-0.4,0.1-0.7,0.1-1.1,0.1c-0.3,0-0.6,0-0.7-0.1c0.6,1.6,2.1,2.8,3.8,2.8c-1.4,1.1-3.2,1.7-5,1.7c-0.4,0-0.7,0-0.9-0.1
			c1.8,1.1,3.9,1.8,6.3,1.8c7.6,0,11.7-6.2,11.7-11.5c0-0.2,0-0.4,0-0.6c0.8-0.6,1.5-1.3,2.1-2.1c-0.7,0.3-1.5,0.6-2.3,0.7
			C-264.1,390.6-263.4,389.9-263.2,388.9"/>
	</g>
</g>
</svg>
