<?xml version="1.0" encoding="utf-8"?>
<!-- Generator: Adobe Illustrator 16.0.0, SVG Export Plug-In . SVG Version: 6.00 Build 0)  -->
<!DOCTYPE svg PUBLIC "-//W3C//DTD SVG 1.1//EN" "http://www.w3.org/Graphics/SVG/1.1/DTD/svg11.dtd">
<svg version="1.1" xmlns="http://www.w3.org/2000/svg" xmlns:xlink="http://www.w3.org/1999/xlink" x="0px" y="0px" width="120px"
	 height="152px" viewBox="0 0 120 152" enable-background="new 0 0 120 152" xml:space="preserve">
<g id="레이어_1">
</g>
<g id="새플">
</g>
<g id="아이콘">
</g>
<g id="book">
</g>
<g id="레이어_4">
</g>
<g id="레이어_6">
	<g>
		<path fill="#BCBCBB" d="M32.337,141.695l-3.85-3.85c-0.704,0.836-1.463,1.588-2.277,2.255c-0.813,0.668-1.66,1.221-2.541,1.661
			l-1.672-1.694c0.836-0.41,1.628-0.909,2.376-1.496c0.748-0.586,1.431-1.217,2.046-1.892c0.602-0.66,1.126-1.338,1.573-2.035
			c0.447-0.696,0.781-1.367,1.001-2.013h-5.83v-2.223h8.845c-0.118,0.939-0.36,1.882-0.727,2.827
			c-0.366,0.946-0.836,1.859-1.408,2.739c0.234,0.234,0.447,0.455,0.639,0.66c0.19,0.19,0.406,0.407,0.648,0.648
			c0.242,0.242,0.495,0.488,0.759,0.737c0.25,0.264,0.499,0.518,0.748,0.759c0.25,0.242,0.47,0.459,0.66,0.649
			c0.19,0.205,0.403,0.418,0.639,0.638L32.337,141.695z M41.644,136.657h-3.586v11h-2.354v-20.02h2.354v6.82h3.586V136.657z"/>
		<path fill="#BCBCBB" d="M61.047,139.496H42.194v-2.2h8.25v-1.519h-4.225v-7.348H56.78v2.244h-8.229v2.882h8.272v2.222h-3.982
			v1.519h8.206V139.496z M56.912,144.357c0,0.616-0.132,1.188-0.396,1.716c-0.265,0.528-0.631,0.982-1.101,1.364
			c-0.455,0.382-1.001,0.679-1.639,0.892c-0.638,0.212-1.331,0.318-2.079,0.318c-0.704,0-1.364-0.099-1.98-0.297
			c-0.615-0.198-1.158-0.487-1.628-0.869c-0.454-0.366-0.817-0.813-1.089-1.342s-0.407-1.115-0.407-1.76
			c0-0.631,0.129-1.21,0.386-1.738c0.256-0.528,0.612-0.982,1.066-1.364c0.47-0.366,1.013-0.656,1.628-0.869
			c0.616-0.212,1.291-0.318,2.024-0.318c0.719,0,1.396,0.103,2.035,0.308c0.638,0.206,1.191,0.499,1.661,0.88
			c0.469,0.367,0.839,0.814,1.11,1.343C56.776,143.147,56.912,143.728,56.912,144.357z M54.492,144.357
			c0-0.674-0.271-1.213-0.814-1.617c-0.542-0.402-1.202-0.604-1.979-0.604s-1.427,0.198-1.947,0.594
			c-0.521,0.396-0.781,0.938-0.781,1.628c0,0.66,0.268,1.185,0.804,1.573c0.535,0.389,1.177,0.583,1.925,0.583
			c0.792,0,1.455-0.184,1.991-0.55C54.224,145.597,54.492,145.062,54.492,144.357z"/>
		<path fill="#BCBCBB" d="M72.862,137.978h-9.944v-9.24h2.31v6.996h7.635V137.978z M77.944,148.252H67.427v-7.59h10.517V148.252z
			 M75.545,146.052v-3.168h-5.72v3.168H75.545z M78.427,139.892h-2.332v-6.182h-4.861v-2.223h4.861v-3.85h2.332V139.892z"/>
		<path fill="#BCBCBB" d="M91.122,129.067c-0.206,2.464-1.049,4.605-2.53,6.424c-1.481,1.819-3.439,3.213-5.874,4.181L81.155,138
			c2.01-0.792,3.612-1.801,4.808-3.025s1.954-2.453,2.276-3.685h-5.764v-2.223H91.122z M96.687,148.252h-10.56v-7.59h10.56V148.252z
			 M94.29,146.052v-3.168h-5.765v3.168H94.29z M97.127,139.979h-2.354v-12.342h2.354V139.979z"/>
	</g>
	<g>
		<path fill="#F48464" d="M100.481,1.923H18.644c-7.083,0-12.846,5.763-12.846,12.846v81.837c0,7.083,5.763,12.846,12.846,12.846
			h81.837c7.083,0,12.846-5.763,12.846-12.846V14.769C113.327,7.686,107.564,1.923,100.481,1.923z"/>
		<g>
			<defs>
				<path id="SVGID_166_" d="M100.481,1.923H18.644c-7.083,0-12.846,5.763-12.846,12.846v81.837c0,7.083,5.763,12.846,12.846,12.846
					h81.837c7.083,0,12.846-5.763,12.846-12.846V14.769C113.327,7.686,107.564,1.923,100.481,1.923z"/>
			</defs>
			<use xlink:href="#SVGID_166_"  overflow="visible" fill="#FFCC66"/>
			<clipPath id="SVGID_1_">
				<use xlink:href="#SVGID_166_"  overflow="visible"/>
			</clipPath>
		</g>
		<g>
			<g>
				<path fill="#EEEFEC" d="M58.575,80.381c-13.649,0-24.757-11.106-24.757-24.757c0-13.651,11.107-24.758,24.757-24.758
					c13.651,0,24.759,11.106,24.759,24.758C83.333,69.274,72.226,80.381,58.575,80.381L58.575,80.381z M58.575,34.197
					c-11.813,0-21.427,9.611-21.427,21.427c0,11.814,9.613,21.426,21.427,21.426c11.815,0,21.427-9.611,21.427-21.426
					C80.001,43.809,70.39,34.197,58.575,34.197L58.575,34.197z"/>
			</g>
			<polygon fill="#EEEFEC" points="74.173,56.482 59.934,56.482 57.087,56.482 57.087,53.634 57.087,39.396 59.934,39.396 
				59.934,53.634 74.173,53.634 			"/>
			<circle fill="#EEEFEC" cx="43.921" cy="55.622" r="2.221"/>
			<circle fill="#EEEFEC" cx="58.354" cy="69.833" r="2.22"/>
		</g>
	</g>
</g>
</svg>
