<?xml version="1.0" encoding="utf-8"?>
<!-- Generator: Adobe Illustrator 16.0.0, SVG Export Plug-In . SVG Version: 6.00 Build 0)  -->
<!DOCTYPE svg PUBLIC "-//W3C//DTD SVG 1.1//EN" "http://www.w3.org/Graphics/SVG/1.1/DTD/svg11.dtd">
<svg version="1.1" xmlns="http://www.w3.org/2000/svg" xmlns:xlink="http://www.w3.org/1999/xlink" x="0px" y="0px" width="120px"
	 height="152px" viewBox="0 0 120 152" enable-background="new 0 0 120 152" xml:space="preserve">
<g id="레이어_1">
</g>
<g id="새플">
</g>
<g id="아이콘">
</g>
<g id="book">
</g>
<g id="레이어_4">
</g>
<g id="레이어_6">
	<g>
		<path fill="#BCBCBB" d="M53.645,146.294h-2.376v-9.263h-2.508v4.511h-7.964v-11.133h7.964v4.379h2.508v-6.711h2.376V146.294z
			 M46.45,139.298v-6.645h-3.3v6.645H46.45z M57.736,147.657h-2.31v-20.02h2.31V147.657z"/>
		<path fill="#BCBCBB" d="M78.328,145.193h-18.81v-2.222h8.14v-3.344h2.332v3.344h8.338V145.193z M74.259,139.363H63.215v-9.481
			h11.044V139.363z M71.927,137.12v-5.038h-6.38v5.038H71.927z"/>
	</g>
	<g>
		<path fill="#99CCCC" d="M100.479,1.924H18.645c-7.083,0-12.846,5.762-12.846,12.845v81.836c0,7.084,5.763,12.846,12.846,12.846
			h81.835c7.084,0,12.847-5.762,12.847-12.846V14.769C113.326,7.686,107.563,1.924,100.479,1.924z"/>
		<g>
			<defs>
				<path id="SVGID_168_" d="M100.479,1.924H18.645c-7.083,0-12.846,5.762-12.846,12.845v81.836c0,7.084,5.763,12.846,12.846,12.846
					h81.835c7.084,0,12.847-5.762,12.847-12.846V14.769C113.326,7.686,107.563,1.924,100.479,1.924z"/>
			</defs>
			<clipPath id="SVGID_1_">
				<use xlink:href="#SVGID_168_"  overflow="visible"/>
			</clipPath>
		</g>
		<g>
			<path fill="#EEEFEC" d="M77.217,63.741v6.243l-6.242-0.001c-1.561,0-2.824,1.102-2.824,2.459v3.074
				c-0.001,1.359,1.264,2.46,2.824,2.46h6.242v6.241c0,1.563,1.102,2.826,2.46,2.826h3.074c1.358,0,2.459-1.264,2.459-2.826v-6.241
				h6.242c1.561,0,2.825-1.101,2.825-2.46l-0.001-3.074c0.001-1.357-1.265-2.459-2.824-2.458l-6.242-0.001v-6.242
				c0-1.561-1.102-2.824-2.46-2.824h-3.073C78.317,60.917,77.217,62.181,77.217,63.741z"/>
			<g>
				<path fill="#EEEFEC" d="M76.264,28.068H50.498c-4.656,0-8.432,3.643-8.432,8.137v2.889h42.631v-2.889
					C84.697,31.711,80.922,28.068,76.264,28.068z"/>
				<rect x="42.066" y="41.688" fill="#EEEFEC" width="42.631" height="10.285"/>
				<path fill="#EEEFEC" d="M75.469,58.872c0.001-2.213,1.562-4.008,3.489-4.008h4.36c0.489,0,0.955,0.117,1.379,0.325v-0.622
					H42.066v10.283H75.47L75.469,58.872z"/>
				<path fill="#EEEFEC" d="M62.606,75.578v-4.362c0-1.926,1.794-3.488,4.008-3.488l8.855,0.002v-0.284H42.066v3.112
					c0,4.492,3.775,8.136,8.432,8.136h14.319C63.507,78.118,62.606,76.941,62.606,75.578z"/>
			</g>
		</g>
	</g>
</g>
</svg>
