<?xml version="1.0" encoding="utf-8"?>
<!-- Generator: Adobe Illustrator 16.0.0, SVG Export Plug-In . SVG Version: 6.00 Build 0)  -->
<!DOCTYPE svg PUBLIC "-//W3C//DTD SVG 1.1//EN" "http://www.w3.org/Graphics/SVG/1.1/DTD/svg11.dtd">
<svg version="1.1" xmlns="http://www.w3.org/2000/svg" xmlns:xlink="http://www.w3.org/1999/xlink" x="0px" y="0px" width="120px"
	 height="152px" viewBox="0 0 120 152" enable-background="new 0 0 120 152" xml:space="preserve">
<g id="레이어_1">
</g>
<g id="새플">
</g>
<g id="아이콘">
</g>
<g id="book">
</g>
<g id="레이어_4">
</g>
<g id="레이어_6">
	<g>
		<path fill="#BCBCBB" d="M52.742,137.724H41.545v-2.199h2.42c0-0.309-0.004-0.639-0.012-0.99c-0.007-0.354-0.019-0.668-0.032-0.947
			c-0.044-0.629-0.151-1.137-0.319-1.518c-0.169-0.381-0.282-0.631-0.341-0.748l1.979-0.879c0.103,0.146,0.282,0.461,0.539,0.945
			s0.414,1.145,0.474,1.98c0.014,0.352,0.029,0.715,0.044,1.088c0.014,0.375,0.021,0.73,0.021,1.068h1.893v-5.324H41.94v-2.223
			h10.384v2.223h-1.737v5.324h2.155V137.724z M57.253,146.898H46.274v-7.15h2.376v4.906h8.603V146.898z M60.421,133.214h-3.433v7.59
			h-2.354v-14.477h2.354v4.643h3.433V133.214z"/>
		<path fill="#BCBCBB" d="M72.477,138.781l-1.606,1.672l-4.466-4.357c-0.587,1.043-1.287,1.926-2.101,2.652
			c-0.814,0.725-1.625,1.316-2.432,1.77l-1.562-1.781c0.88-0.439,1.631-0.953,2.255-1.539c0.623-0.588,1.133-1.203,1.529-1.85
			c0.396-0.645,0.686-1.305,0.868-1.979c0.184-0.676,0.275-1.336,0.275-1.98v-3.08h2.464v2.641c0,0.514-0.033,1.004-0.099,1.473
			c-0.066,0.471-0.15,0.924-0.253,1.365L72.477,138.781z M77.58,146.347h-2.332v-11.791h-4.861v-2.244h4.861v-5.985h2.332V146.347z"
			/>
	</g>
	<g>
		<path fill="#666666" d="M100.48,1.924H18.646c-7.084,0-12.847,5.763-12.847,12.845v81.836c0,7.084,5.763,12.847,12.847,12.847
			h81.835c7.083,0,12.846-5.763,12.846-12.847V14.769C113.326,7.687,107.563,1.924,100.48,1.924z"/>
		<g>
			<defs>
				<path id="SVGID_170_" d="M100.48,1.924H18.646c-7.084,0-12.847,5.763-12.847,12.845v81.836c0,7.084,5.763,12.847,12.847,12.847
					h81.835c7.083,0,12.846-5.763,12.846-12.847V14.769C113.326,7.687,107.563,1.924,100.48,1.924z"/>
			</defs>
			<clipPath id="SVGID_1_">
				<use xlink:href="#SVGID_170_"  overflow="visible"/>
			</clipPath>
		</g>
		<g>
			<g>
				<g>
					<polygon fill="#EEEFEC" points="79.703,27.307 87.467,35.591 90.631,32.626 82.87,24.341 82.518,23.963 79.349,26.933 					"/>
				</g>
				<polygon fill="#EEEFEC" points="33.037,74.497 29.727,81.609 37.041,78.771 				"/>
				<g>
					<polygon fill="#EEEFEC" points="42.805,74.045 44.496,75.851 84.33,38.532 82.656,36.744 					"/>
					
						<rect x="33.346" y="52.089" transform="matrix(-0.7301 0.6834 -0.6834 -0.7301 141.2414 50.539)" fill="#EEEFEC" width="54.588" height="2.149"/>
					<polygon fill="#EEEFEC" points="78.477,32.281 76.246,29.902 36.413,67.224 38.623,69.583 					"/>
				</g>
			</g>
			<polygon fill="#EEEFEC" points="83.277,81.587 29.768,81.587 31.1,80.035 83.277,80.035 			"/>
		</g>
	</g>
</g>
</svg>
