<?xml version="1.0" encoding="utf-8"?>
<!-- Generator: Adobe Illustrator 16.0.0, SVG Export Plug-In . SVG Version: 6.00 Build 0)  -->
<!DOCTYPE svg PUBLIC "-//W3C//DTD SVG 1.1//EN" "http://www.w3.org/Graphics/SVG/1.1/DTD/svg11.dtd">
<svg version="1.1" xmlns="http://www.w3.org/2000/svg" xmlns:xlink="http://www.w3.org/1999/xlink" x="0px" y="0px" width="120px"
	 height="152px" viewBox="0 0 120 152" enable-background="new 0 0 120 152" xml:space="preserve">
<g id="레이어_1">
</g>
<g id="새플">
</g>
<g id="아이콘">
</g>
<g id="book">
</g>
<g id="레이어_4">
</g>
<g id="레이어_6">
	<g>
		<path fill="#BCBCBB" d="M14.331,134.109c0,0.939-0.18,1.717-0.539,2.332c-0.359,0.617-0.818,1.107-1.375,1.475
			c-0.558,0.381-1.185,0.645-1.881,0.791c-0.697,0.148-1.383,0.221-2.057,0.221H7.181v-2.156h1.276c0.41,0,0.817-0.035,1.221-0.109
			s0.767-0.205,1.089-0.396c0.309-0.205,0.562-0.48,0.76-0.824c0.197-0.346,0.297-0.789,0.297-1.332c0-0.484-0.111-0.887-0.33-1.209
			c-0.221-0.322-0.499-0.588-0.836-0.793c-0.353-0.205-0.741-0.352-1.166-0.439c-0.426-0.088-0.852-0.133-1.276-0.133H6.389v13.707
			H4.013v-15.818h4.225c0.732,0,1.463,0.074,2.188,0.221s1.375,0.395,1.947,0.748c0.587,0.365,1.06,0.85,1.419,1.451
			S14.331,133.201,14.331,134.109z"/>
		<path fill="#BCBCBB" d="M28.301,137.277c0,1.145-0.14,2.152-0.418,3.025s-0.653,1.617-1.122,2.232
			c-0.47,0.617-1.009,1.123-1.617,1.52c-0.608,0.395-1.25,0.689-1.925,0.879c-0.426,0.117-0.909,0.195-1.452,0.23
			c-0.543,0.037-1.056,0.057-1.54,0.057h-3.916v-15.818h4.488c0.601,0,1.198,0.063,1.793,0.186c0.594,0.125,1.11,0.275,1.551,0.451
			c1.218,0.484,2.214,1.314,2.992,2.486C27.912,133.699,28.301,135.283,28.301,137.277z M25.925,137.277
			c-0.015-0.924-0.121-1.719-0.318-2.387c-0.199-0.668-0.459-1.221-0.781-1.66c-0.323-0.441-0.689-0.781-1.101-1.023
			s-0.836-0.406-1.276-0.496c-0.322-0.043-0.707-0.088-1.154-0.131c-0.447-0.045-0.861-0.066-1.243-0.066h-1.319v11.594h1.518
			c0.352,0,0.751-0.014,1.199-0.043c0.447-0.029,0.816-0.088,1.11-0.176c0.382-0.104,0.771-0.283,1.166-0.539
			c0.396-0.258,0.763-0.613,1.101-1.068c0.322-0.439,0.586-0.99,0.791-1.65C25.821,138.972,25.925,138.187,25.925,137.277z"/>
		<path fill="#BCBCBB" d="M39.784,131.535h-6.643v4.379h6.379v2.111h-6.379v7.217h-2.421v-15.818h9.063V131.535z"/>
		<path fill="#BCBCBB" d="M50.477,141.457h-8.778V130.15h2.332v9.086h6.446V141.457z M58.396,147.837h-2.332v-11.551h-2.53v10.188
			h-2.332v-18.217h2.332v5.785h2.53v-6.225h2.332V147.837z"/>
		<path fill="#BCBCBB" d="M70.475,142.292h-9.745v-7.105h5.896v-2.529h-6.007v-2.201h8.449v6.953h-5.94v2.684h7.348V142.292z
			 M76.591,147.837h-2.354v-8.053h-4.092v-2.178h4.092v-2.266h-4.092v-2.178h4.092v-5.346h2.354V147.837z"/>
		<path fill="#BCBCBB" d="M88.515,138.707h-8.977v-9.592h2.354v3.104h4.269v-3.104h2.354V138.707z M86.161,136.507v-2.09h-4.269
			v2.09H86.161z M94.587,148.476h-11v-7.459h10.758v2.201h-8.36v3.035h8.603V148.476z M97.997,134.945h-3.455v5.236h-2.375v-12.363
			h2.375v4.906h3.455V134.945z"/>
		<path fill="#BCBCBB" d="M109.349,130.589c-0.074,1.672-0.407,3.176-1.002,4.51c-0.594,1.336-1.323,2.502-2.188,3.498
			c-0.865,0.998-1.804,1.838-2.815,2.52s-1.966,1.207-2.86,1.572l-1.584-1.672c2.009-0.836,3.699-1.977,5.071-3.42
			c1.371-1.445,2.254-3.041,2.65-4.785h-6.402v-2.223H109.349z M115.112,147.837h-2.354v-20.02h2.354V147.837z"/>
	</g>
	<g>
		<path fill="#99CCCC" d="M100.481,1.923H18.646c-7.084,0-12.848,5.764-12.848,12.846v81.836c0,7.084,5.764,12.847,12.848,12.847
			h81.836c7.082,0,12.846-5.763,12.846-12.847V14.769C113.327,7.687,107.563,1.923,100.481,1.923z"/>
		<g>
			<defs>
				<path id="SVGID_172_" d="M100.481,1.923H18.646c-7.084,0-12.848,5.764-12.848,12.846v81.836c0,7.084,5.764,12.847,12.848,12.847
					h81.836c7.082,0,12.846-5.763,12.846-12.847V14.769C113.327,7.687,107.563,1.923,100.481,1.923z"/>
			</defs>
			<clipPath id="SVGID_1_">
				<use xlink:href="#SVGID_172_"  overflow="visible"/>
			</clipPath>
		</g>
		<g>
			<polygon fill="#EEEFEC" points="61.024,72.927 54.854,66.531 54.851,66.531 54.851,72.576 54.856,72.576 63.858,81.928 
				72.858,72.576 72.865,72.576 72.865,66.561 66.723,72.927 66.737,66.531 66.729,66.531 66.729,59.553 60.984,59.553 
				60.984,64.911 			"/>
			<path fill="#EEEFEC" d="M81.221,50.59c0.185-0.965,0.284-1.96,0.284-2.978c0-8.693-7.046-15.739-15.738-15.739
				c-6.347,0-11.813,3.759-14.301,9.17c-1.244-0.753-2.697-1.193-4.256-1.193c-4.4,0-7.985,3.45-8.219,7.792
				c-3.523,1.579-5.979,5.112-5.979,9.223c0,2.892,1.217,5.496,3.162,7.338h20.619V53.753h13.049v10.449H86.11
				c1.299-1.457,2.096-3.371,2.096-5.477C88.206,54.602,85.174,51.197,81.221,50.59z"/>
		</g>
	</g>
</g>
</svg>
